<svg version="1.1" xmlns="http://www.w3.org/2000/svg" xmlns:xlink="http://www.w3.org/1999/xlink" width="100px" height="100px" viewBox="0,0,256,256"><g fill="none" fill-rule="nonzero" stroke="none" stroke-width="1" stroke-linecap="butt" stroke-linejoin="miter" stroke-miterlimit="10" stroke-dasharray="" stroke-dashoffset="0" font-family="none" font-weight="none" font-size="none" text-anchor="none" style="mix-blend-mode: normal"><g transform="scale(5.33333,5.33333)"><path d="M28.4,39.6l1.9,0.6l-0.9,2.8l-1.9,-0.6z" fill="#455a64"></path><path d="M33.2,8.3l2.9,0.9l-0.6,1.9l-2.9,-0.9z" fill="#546e7a"></path><path d="M32.2,6l1.9,0.6l-3.7,12.4l-1.9,-0.6z" fill="#6a94a1"></path><path d="M39.9,5.1c-1.6,-0.5 -3.3,0.4 -3.7,2l-3.2,10.6l5.7,1.7l3.2,-10.5c0.4,-1.6 -0.5,-3.3 -2,-3.8z" fill="#ff650c"></path><path d="M30,41.1c1.5,-1.3 3.6,-5 3.9,-6.1l4.5,-14.6l-5.8,-1.7l-4.5,14.6c-0.3,1.2 -0.6,5.4 -0.1,7.3z" fill="#fcc65b"></path><path d="M24.3,38.9c-0.2,0 -0.4,-0.1 -0.6,-0.2c-0.3,-0.2 -0.5,-0.4 -0.7,-0.6c-0.3,-0.3 -0.5,-0.5 -0.9,-0.6c-0.2,-0.1 -0.4,-0.1 -0.7,-0.1c-0.4,0 -0.9,0 -1.5,-0.3c-0.6,-0.3 -0.8,-0.8 -0.9,-1.1c-0.2,0.1 -0.5,0.2 -0.7,0.4c-0.6,0.4 -2.2,1.4 -3.3,-0.3c-0.6,-0.9 -0.3,-2.2 -0.1,-3.3c0,-0.1 0.1,-0.3 0.1,-0.4c-0.5,0.2 -1.1,0.6 -1.6,1c-1.4,0.9 -3,2 -5,1.3c-3.3,-1.2 -2.5,-6.5 -2.2,-8.1c0.7,-3.3 1.5,-7 4,-9.2c2.1,-1.9 3.9,-1.8 5,-1.4c1.8,0.7 3.2,3 3.4,5.8c0.1,0.5 -0.4,1 -0.9,1.1c-0.6,0.1 -1,-0.4 -1.1,-0.9c-0.2,-2 -1.1,-3.7 -2.2,-4.1c-1,-0.4 -2.1,0.3 -2.9,1c-2.1,1.9 -2.9,5.9 -3.3,8.1c-0.5,2.5 -0.4,5.4 0.9,5.8c1,0.3 1.9,-0.2 3.2,-1.1c1.1,-0.8 2.4,-1.6 3.9,-1.5c0.5,0 0.8,0.4 0.9,0.8c0.1,0.7 -0.1,1.5 -0.3,2.3c-0.1,0.5 -0.4,1.4 -0.2,1.7c0,0 0,0.1 0.1,0.1c0.1,-0.1 0.3,-0.2 0.5,-0.3c0.6,-0.4 1.3,-0.9 2.3,-0.7c1.1,0.2 1.3,1 1.4,1.4c0.1,0 0.3,0 0.5,0c0.4,0 0.9,0 1.4,0.3c0.7,0.3 1.1,0.7 1.4,1c0.2,0.2 0.3,0.3 0.6,0.5c0.4,0.3 0.5,1 0.2,1.4c-0.1,0.1 -0.4,0.2 -0.7,0.2z" fill="#2196f3"></path><path d="M33,17.7l5.7,1.7l-0.6,1.9l-5.7,-1.7z" fill="#ffc107"></path></g></g></svg>