<svg version="1.1" xmlns="http://www.w3.org/2000/svg" xmlns:xlink="http://www.w3.org/1999/xlink" width="100px" height="100px" viewBox="0,0,256,256"><g fill="none" fill-rule="nonzero" stroke="none" stroke-width="1" stroke-linecap="butt" stroke-linejoin="miter" stroke-miterlimit="10" stroke-dasharray="" stroke-dashoffset="0" font-family="none" font-weight="none" font-size="none" text-anchor="none" style="mix-blend-mode: normal"><g transform="scale(2.56,2.56)"><path d="M68,74c-4.325,-1.622 -7.188,-2.659 -8.907,-3.27c-0.286,-0.102 -0.54,-0.191 -0.764,-0.27c-0.801,-0.282 -1.329,-1.035 -1.329,-1.884v-3.034c4.442,-2.889 8,-7.543 8,-9.542c0,-1 0,-4 0,-4c2,0 2.381,-1.898 3,-4c0.57,-1.935 1,-4 1,-5c0,-1.875 -3.257,-2.5 -3.257,-2.5h-0.121c-0.031,-1.75 -0.325,-9.907 -2.871,-15c0,0 -6.25,-2 -12.75,-2c-6.5,0 -12.75,2 -12.75,2c-2.553,5.107 -2.932,13.284 -2.989,15.014c-0.754,0.097 -3.262,0.763 -3.262,2.486c0,1 0.43,3.065 1,5c0.619,2.102 1,4 3,4c0,0 0,3 0,4c0,1.999 3.558,6.653 8,9.542v3.034c0,0.849 -0.528,1.602 -1.329,1.884c-0.224,0.079 -0.478,0.169 -0.764,0.27c-1.719,0.611 -4.582,1.648 -8.907,3.27c-8,3 -8,11 -8,11h52c0,0 0,-8 -8,-11z" fill="#ffecdd"></path><path d="M50,18.5c-16,0 -19.5,10 -19.5,16c0,7 5,10 5,10c0,-9 4,-13 4,-16c0.467,3.726 9,5 9,5v-3c0,0 6.5,6 14,6c2,4.5 2,8.5 2,8.5c0,0 5,-4.5 5,-11.5c0,-10 -11.5,-15 -19.5,-15z" fill="#bb7a54"></path><path d="M50,24.5c11.5,0 18.5,4.5 18.5,4.5v-10.5c0,0 -4.5,-9 -18.5,-9c-14,0 -18.5,9 -18.5,9v10.5c0,0 7,-4.5 18.5,-4.5" fill="#fefdef"></path><path d="M53.5,15.5h-2v-2h-3v2h-2v3h2v2h3v-2h2z" fill="#f05b6c"></path><path d="M68,74.007c-4.325,-1.622 -7.188,-2.659 -8.907,-3.27c-0.249,-0.089 -0.464,-0.164 -0.666,-0.236c-1.249,0.563 -3.998,1.505 -8.427,1.505c-4.406,0 -7.166,-0.944 -8.423,-1.507c-0.203,0.072 -0.419,0.148 -0.67,0.237c-1.718,0.611 -4.582,1.648 -8.907,3.27c-8,3 -8,11 -8,11h52c0,0.001 0,-7.999 -8,-10.999z" fill="#a2a2cc"></path><path d="M39.5,78.507l-3,-2v-4.172c-1.283,0.472 -2.769,1.023 -4.5,1.672c-8,3 -8,11 -8,11h19.167l-4.667,-3.5z" fill="#fefdef"></path><path d="M68,74.007c-1.731,-0.649 -3.217,-1.2 -4.5,-1.672v4.172l-3,2l1,3l-4.667,3.5h19.167c0,0 0,-8 -8,-11z" fill="#fefdef"></path><path d="M46.5,85.01h-3.34l-4.66,-3.5l1,-3l-3,-2v-4.17c1.93,-0.71 3.38,-1.23 4.41,-1.6c0.16,-0.06 0.3,-0.11 0.43,-0.16z" fill="#ffffff"></path><path d="M63.5,76.5l-3,2l1,3l-4.68,3.51h-3.31l-0.01,-0.01l5.15,-14.42c0.13,0.05 0.28,0.1 0.44,0.16c1.03,0.37 2.48,0.89 4.41,1.6z" fill="#ffffff"></path><path d="M43,65.54v0.002c2.473,1.608 4.894,2.458 7,2.458c2.106,0 4.527,-0.85 7,-2.458v-0.002c3.46,-2.252 6.377,-5.568 7.5,-7.871c0,-4.252 0,-12.669 0,-12.669c0,0 -4.5,3.5 -14.5,3.5c-10,0 -14.5,-4 -14.5,-4c0,0 0,7.328 0,13.169c1.123,2.303 4.04,5.619 7.5,7.871z" fill="#c6dff1"></path><g fill="#1f212b"><path d="M50,49c-10.074,0 -14.643,-3.958 -14.832,-4.126l0.663,-0.748c0.044,0.039 4.509,3.874 14.169,3.874c9.678,0 14.149,-3.361 14.194,-3.396l0.612,0.79c-0.188,0.148 -4.75,3.606 -14.806,3.606z"></path><path d="M50,55c-7.07,0 -11.589,-2.958 -11.777,-3.084c-0.229,-0.153 -0.292,-0.463 -0.139,-0.693c0.151,-0.229 0.46,-0.292 0.693,-0.14c0.044,0.03 4.472,2.917 11.223,2.917c6.751,0 11.179,-2.887 11.223,-2.917c0.232,-0.152 0.54,-0.089 0.693,0.14c0.153,0.23 0.091,0.54 -0.139,0.693c-0.188,0.126 -4.707,3.084 -11.777,3.084z"></path><path d="M50,61c-7.141,0 -11.682,-4.955 -11.872,-5.166c-0.185,-0.205 -0.168,-0.521 0.037,-0.706c0.205,-0.186 0.521,-0.169 0.706,0.036c0.044,0.049 4.445,4.836 11.129,4.836c6.7,0 11.085,-4.786 11.128,-4.834c0.187,-0.205 0.502,-0.221 0.707,-0.037c0.205,0.185 0.222,0.501 0.037,0.706c-0.19,0.21 -4.731,5.165 -11.872,5.165z"></path><path d="M64.5,53c-0.276,0 -0.5,-0.224 -0.5,-0.5v-7.5c0,-0.276 0.224,-0.5 0.5,-0.5c0.276,0 0.5,0.224 0.5,0.5v7.5c0,0.276 -0.224,0.5 -0.5,0.5z"></path><rect x="35" y="44.5" width="1" height="7.833"></rect><path d="M50,69c-2.301,0 -4.909,-0.906 -7.545,-2.62l1.09,-1.677c2.31,1.503 4.543,2.297 6.455,2.297c1.912,0 4.145,-0.794 6.455,-2.296l1.09,1.677c-2.636,1.713 -5.244,2.619 -7.545,2.619z"></path><path d="M76,86h-52c-0.553,0 -1,-0.448 -1,-1c0,-0.087 0.099,-8.73 8.648,-11.937c4.508,-1.69 7.343,-2.714 8.928,-3.276l0.751,-0.267c0.334,-0.116 0.575,-0.389 0.645,-0.717c0.019,-0.091 0.028,-0.158 0.028,-0.223v-2.506c-4.242,-2.914 -8,-7.611 -8,-10.074v-3.131c-1.781,-0.508 -2.329,-2.405 -2.82,-4.107l-0.139,-0.479c-0.48,-1.624 -1.041,-3.983 -1.041,-5.283c0,-0.939 0.62,-1.718 1.842,-2.314l0.877,1.798c-0.635,0.309 -0.72,0.527 -0.721,0.529c0.002,0.84 0.405,2.824 0.961,4.704l0.143,0.491c0.624,2.163 0.949,2.792 1.898,2.792c0.553,0 1,0.448 1,1v4c0,1.491 3.24,5.899 7.546,8.702c0.283,0.185 0.454,0.5 0.454,0.838v3.04c0,0.206 -0.023,0.416 -0.072,0.641c-0.213,1.005 -0.952,1.843 -1.929,2.183l-0.752,0.267c-1.58,0.56 -4.402,1.58 -8.896,3.265c-5.64,2.115 -6.953,6.964 -7.259,9.064l49.822,-0.001c-0.29,-2.102 -1.575,-6.93 -7.267,-9.063c-4.493,-1.685 -7.315,-2.705 -8.893,-3.264l-0.769,-0.273c-0.961,-0.335 -1.682,-1.143 -1.912,-2.157c-0.049,-0.233 -0.073,-0.452 -0.073,-0.662v-3.04c0,-0.338 0.171,-0.653 0.454,-0.838c4.306,-2.803 7.546,-7.211 7.546,-8.702v-4c0,-0.552 0.447,-1 1,-1c0.949,0 1.274,-0.629 1.898,-2.792l0.143,-0.491c0.556,-1.881 0.959,-3.864 0.959,-4.717v0c-0.004,0 -0.132,-0.279 -1.015,-0.646l0.768,-1.847c1.491,0.62 2.247,1.459 2.247,2.493c0,1.3 -0.561,3.659 -1.041,5.283l-0.139,0.479c-0.491,1.703 -1.039,3.6 -2.82,4.107v3.131c0,2.463 -3.758,7.161 -8,10.074v2.506c0,0.067 0.01,0.146 0.027,0.229c0.074,0.327 0.312,0.595 0.632,0.707l0.768,0.273c1.582,0.561 4.417,1.585 8.925,3.275c8.549,3.206 8.648,11.849 8.648,11.936c0,0.552 -0.447,1 -1,1z"></path><path d="M31.5,29.5c-0.082,0 -0.165,-0.021 -0.239,-0.061c-0.161,-0.088 -0.261,-0.256 -0.261,-0.439v-10.5c0,-0.078 0.019,-0.154 0.053,-0.224c0.047,-0.092 4.801,-9.276 18.947,-9.276c14.146,0 18.9,9.184 18.947,9.276c0.034,0.07 0.053,0.146 0.053,0.224v10.5c0,0.183 -0.1,0.351 -0.26,0.438c-0.162,0.088 -0.357,0.079 -0.511,-0.018c-0.068,-0.044 -7.027,-4.42 -18.229,-4.42c-11.224,0 -18.161,4.376 -18.229,4.42c-0.083,0.054 -0.177,0.08 -0.271,0.08zM50,24c9.476,0 15.87,2.975 18,4.132v-9.505c-0.542,-0.959 -5.28,-8.627 -18,-8.627c-12.72,0 -17.458,7.668 -18,8.627v9.505c2.13,-1.157 8.524,-4.132 18,-4.132z"></path><path d="M64.5,45.5c-0.068,0 -0.138,-0.014 -0.203,-0.043c-0.181,-0.081 -0.297,-0.259 -0.297,-0.457c0,-0.039 -0.026,-3.781 -1.829,-8.004c-5.976,-0.132 -11.191,-3.822 -13.171,-5.415v1.919c0,0.146 -0.063,0.284 -0.174,0.379c-0.109,0.095 -0.251,0.135 -0.4,0.116c-0.31,-0.046 -6.567,-1.014 -8.724,-3.811c-0.229,0.729 -0.571,1.517 -0.959,2.408c-1.157,2.661 -2.743,6.306 -2.743,11.908c0,0.18 -0.097,0.346 -0.254,0.435c-0.156,0.089 -0.349,0.086 -0.503,-0.006c-0.215,-0.129 -5.243,-3.229 -5.243,-10.429c0,-1.363 0.179,-3.473 1.031,-5.785c0.078,-0.212 0.279,-0.352 0.512,-0.325c1.5,-0.877 8.159,-4.39 18.457,-4.39c9.833,0 16.349,3.204 18.223,4.255c0.052,-0.035 0.111,-0.06 0.175,-0.073c0.234,-0.053 0.467,0.073 0.561,0.289c0.69,1.585 1.041,3.276 1.041,5.029c0,7.141 -4.955,11.682 -5.165,11.872c-0.094,0.084 -0.214,0.128 -0.335,0.128zM48.5,30c0.123,0 0.245,0.045 0.339,0.132c0.063,0.059 6.45,5.868 13.661,5.868c0.197,0 0.377,0.116 0.457,0.297c1.388,3.123 1.833,5.985 1.976,7.524c1.364,-1.564 4.067,-5.298 4.067,-10.321c0,-1.404 -0.244,-2.765 -0.726,-4.054c-0.016,-0.008 -0.03,-0.016 -0.045,-0.025c-0.068,-0.045 -7.027,-4.421 -18.229,-4.421c-10.533,0 -17.291,3.854 -18.14,4.365c-0.708,2.054 -0.86,3.913 -0.86,5.135c0,5.007 2.679,7.889 4.016,9.016c0.171,-5.255 1.687,-8.739 2.811,-11.323c0.655,-1.508 1.173,-2.699 1.173,-3.693c0,-0.264 0.205,-0.482 0.469,-0.499c0.288,-0.013 0.495,0.176 0.527,0.437c0.318,2.54 5.439,3.998 8.004,4.471v-2.409c0,-0.199 0.117,-0.378 0.3,-0.458c0.064,-0.028 0.133,-0.042 0.2,-0.042z"></path><path d="M53.499,72.787c-0.248,0 -0.463,-0.185 -0.495,-0.438c-0.034,-0.274 0.159,-0.524 0.434,-0.559c0.669,-0.084 1.309,-0.194 1.956,-0.335c0.273,-0.058 0.536,0.113 0.595,0.382c0.059,0.27 -0.112,0.536 -0.382,0.595c-0.677,0.147 -1.346,0.261 -2.044,0.35c-0.022,0.003 -0.042,0.005 -0.064,0.005z"></path><path d="M50,73c-5.227,0 -8.261,-1.276 -9.322,-1.825c-0.245,-0.127 -0.342,-0.429 -0.215,-0.674c0.127,-0.247 0.431,-0.34 0.674,-0.215c0.997,0.516 3.856,1.714 8.863,1.714c0.517,0 1.003,-0.017 1.475,-0.041c0.313,-0.02 0.511,0.199 0.524,0.474c0.015,0.276 -0.198,0.511 -0.474,0.525c-0.487,0.025 -0.991,0.042 -1.525,0.042z"></path><path d="M46.5,85.5c-0.205,0 -0.397,-0.127 -0.471,-0.332l-5,-14c-0.093,-0.26 0.043,-0.546 0.303,-0.639c0.262,-0.093 0.546,0.043 0.639,0.303l5,14c0.093,0.26 -0.043,0.546 -0.303,0.639c-0.056,0.02 -0.112,0.029 -0.168,0.029z"></path><path d="M53.5,85.5c-0.056,0 -0.112,-0.009 -0.168,-0.029c-0.26,-0.093 -0.396,-0.379 -0.303,-0.639l5.151,-14.425c0.094,-0.26 0.379,-0.396 0.639,-0.303c0.26,0.093 0.396,0.379 0.303,0.639l-5.151,14.425c-0.074,0.205 -0.266,0.332 -0.471,0.332z"></path><path d="M56.833,85.5c-0.151,0 -0.302,-0.069 -0.4,-0.2c-0.165,-0.221 -0.12,-0.534 0.101,-0.7l4.379,-3.284l-0.887,-2.658c-0.071,-0.214 0.01,-0.449 0.197,-0.574l2.777,-1.852v-3.905c0,-0.276 0.224,-0.5 0.5,-0.5c0.276,0 0.5,0.224 0.5,0.5v4.173c0,0.167 -0.084,0.323 -0.223,0.416l-2.683,1.788l0.88,2.638c0.067,0.204 -0.003,0.429 -0.175,0.558l-4.667,3.5c-0.089,0.067 -0.195,0.1 -0.299,0.1z"></path><path d="M43.162,85.497c-0.104,0 -0.21,-0.033 -0.3,-0.1l-4.662,-3.497c-0.173,-0.129 -0.242,-0.354 -0.175,-0.558l0.88,-2.638l-2.683,-1.788c-0.138,-0.093 -0.222,-0.249 -0.222,-0.416v-4.172c0,-0.276 0.224,-0.5 0.5,-0.5c0.276,0 0.5,0.224 0.5,0.5v3.905l2.777,1.852c0.188,0.125 0.269,0.36 0.197,0.574l-0.887,2.658l4.374,3.281c0.221,0.166 0.266,0.479 0.101,0.7c-0.098,0.13 -0.249,0.199 -0.4,0.199z"></path><path d="M51.5,21h-3c-0.276,0 -0.5,-0.224 -0.5,-0.5v-1.5h-1.5c-0.276,0 -0.5,-0.224 -0.5,-0.5v-3c0,-0.276 0.224,-0.5 0.5,-0.5h1.5v-1.5c0,-0.276 0.224,-0.5 0.5,-0.5h3c0.276,0 0.5,0.224 0.5,0.5v1.5h1.5c0.276,0 0.5,0.224 0.5,0.5v3c0,0.276 -0.224,0.5 -0.5,0.5h-1.5v1.5c0,0.276 -0.224,0.5 -0.5,0.5zM49,20h2v-1.5c0,-0.276 0.224,-0.5 0.5,-0.5h1.5v-2h-1.5c-0.276,0 -0.5,-0.224 -0.5,-0.5v-1.5h-2v1.5c0,0.276 -0.224,0.5 -0.5,0.5h-1.5v2h1.5c0.276,0 0.5,0.224 0.5,0.5z"></path><path d="M43,39c-0.799,0 -1.482,0.589 -1.803,1.435c0.181,-0.257 0.465,-0.435 0.803,-0.435c0.552,0 1,0.448 1,1c0,0.552 -0.448,1 -1,1c-0.502,0 -0.899,-0.376 -0.971,-0.857c-0.014,0.117 -0.029,0.234 -0.029,0.357c0,1.381 0.895,2.5 2,2.5c1.105,0 2,-1.119 2,-2.5c0,-1.381 -0.895,-2.5 -2,-2.5z"></path><path d="M57,39c-0.799,0 -1.482,0.589 -1.803,1.435c0.181,-0.257 0.465,-0.435 0.803,-0.435c0.552,0 1,0.448 1,1c0,0.552 -0.448,1 -1,1c-0.502,0 -0.899,-0.376 -0.971,-0.857c-0.014,0.117 -0.029,0.234 -0.029,0.357c0,1.381 0.895,2.5 2,2.5c1.105,0 2,-1.119 2,-2.5c0,-1.381 -0.895,-2.5 -2,-2.5z"></path><path d="M43,36.375c1.435,0.003 2.867,0.208 4.135,0.625l0.865,-1.277c-1.544,-0.476 -3.27,-0.719 -5,-0.723c-1.36,-0.003 -2.723,0.143 -4,0.441l0.686,1.31c1.055,-0.26 2.186,-0.379 3.314,-0.376z"></path><path d="M55.784,35.044c-1.315,0.089 -2.603,0.314 -3.784,0.678l0.865,1.278c1.268,-0.417 2.7,-0.622 4.135,-0.625c1.128,-0.003 2.259,0.116 3.313,0.376l0.21,-0.4c-1.682,-0.226 -3.284,-0.703 -4.739,-1.307z"></path></g></g></g></svg>