<svg version="1.1" xmlns="http://www.w3.org/2000/svg" xmlns:xlink="http://www.w3.org/1999/xlink" width="80px" height="80px" viewBox="0,0,256,256"><g fill="none" fill-rule="nonzero" stroke="none" stroke-width="1" stroke-linecap="butt" stroke-linejoin="miter" stroke-miterlimit="10" stroke-dasharray="" stroke-dashoffset="0" font-family="none" font-weight="none" font-size="none" text-anchor="none" style="mix-blend-mode: normal"><g transform="scale(3.2,3.2)"><path d="M19.5,77.5v-9.5c0,-13.121 4.743,-19.5 14.5,-19.5h14c11.304,0 20.5,8.748 20.5,19.5v9.5z" fill="#82b9ff"></path><path d="M48,49c11.028,0 20,8.523 20,19v9h-48v-9c0,-12.785 4.579,-19 14,-19h14M48,48h-14c-11.598,0 -15,8.954 -15,20v10h50v-10c0,-11.046 -9.402,-20 -21,-20z" fill="#4e7ab5"></path><path d="M20.784,77.5l17.098,-9.119l12.618,-19.232v-0.499c1.914,0.223 3.791,0.709 5.592,1.448l-9.448,27.402z" fill="#e1ebf2"></path><path d="M51,49.22c1.521,0.22 3.016,0.611 4.464,1.168l-9.177,26.612h-23.504l15.221,-8.118l0.225,-0.12l0.14,-0.214l12.467,-19l0.164,-0.249v-0.079M50,48.096v0.904l-12.467,19l-18.533,9.884c0.334,0.07 0.678,0.116 1.035,0.116h26.965l9.717,-28.179c-2.081,-0.907 -4.337,-1.51 -6.717,-1.725z" fill="#788b9c"></path><path d="M31.5,77.5v-12h15c3.309,0 6,2.691 6,6c0,3.309 -2.691,6 -6,6z" fill="#f5ce85"></path><path d="M46.5,66c3.033,0 5.5,2.467 5.5,5.5c0,3.033 -2.467,5.5 -5.5,5.5h-14.5v-11h14.5M46.5,65h-15c-0.276,0 -0.5,0.224 -0.5,0.5v12c0,0.276 0.224,0.5 0.5,0.5h15c3.59,0 6.5,-2.91 6.5,-6.5c0,-3.59 -2.91,-6.5 -6.5,-6.5z" fill="#967a44"></path><path d="M16.001,77.5c-1.32,0 -2.568,-0.579 -3.424,-1.589c-0.863,-1.019 -1.233,-2.359 -1.014,-3.679l1.664,-8.196c1.692,-8.337 8.486,-14.582 16.906,-15.539l1.539,0.002l12.566,29.001z" fill="#ffffff"></path><path d="M31.343,49l12.133,28h-27.475c-1.173,0 -2.282,-0.515 -3.043,-1.413c-0.768,-0.906 -1.097,-2.099 -0.909,-3.238l1.667,-8.213c1.646,-8.106 8.239,-14.182 16.417,-15.136h1.21M32,48h-1.924c-8.519,0.969 -15.593,7.33 -17.34,15.937l-1.667,8.213c-0.508,3.062 1.842,5.85 4.932,5.85h28.999l-13,-30z" fill="#788b9c"></path><g><path d="M41,53.5c-5.875,0 -8.148,-3.876 -8.5,-4.551v-10.948h17v10.948c-0.351,0.675 -2.625,4.551 -8.5,4.551z" fill="#deb974"></path><path d="M49,38.501v10.32c-0.459,0.811 -2.687,4.179 -8,4.179c-5.336,0 -7.539,-3.353 -8,-4.177v-10.322h16M50,37.501h-18v11.566c0,0 2.281,4.933 9,4.933c6.719,0 9,-4.933 9,-4.933v-11.566z" fill="#967a44"></path></g><g><path d="M53.143,33.214c-2.403,0 -4.357,-1.954 -4.357,-4.356c0,-2.402 1.954,-4.358 4.357,-4.358c3.095,0 4.357,0.793 4.357,2.738c0,2.36 -1.952,5.976 -4.357,5.976zM28.857,33.214c-2.405,0 -4.357,-3.616 -4.357,-5.976c0,-1.945 1.262,-2.738 4.357,-2.738c2.403,0 4.357,1.955 4.357,4.357c0,2.402 -1.954,4.357 -4.357,4.357z" fill="#deb974"></path><path d="M53.143,25c3.559,0 3.857,1.106 3.857,2.238c0,2.341 -1.907,5.476 -3.857,5.476c-2.127,0 -3.857,-1.73 -3.857,-3.857c0,-2.127 1.73,-3.857 3.857,-3.857M28.857,25c2.127,0 3.857,1.73 3.857,3.857c0,2.127 -1.73,3.857 -3.857,3.857c-1.95,0 -3.857,-3.136 -3.857,-5.476c0,-1.132 0.298,-2.238 3.857,-2.238M53.143,24c-2.683,0 -4.857,2.175 -4.857,4.857c0,2.682 2.175,4.857 4.857,4.857c2.682,0 4.857,-3.794 4.857,-6.476c0,-2.682 -2.175,-3.238 -4.857,-3.238zM28.857,24c-2.682,0 -4.857,0.556 -4.857,3.238c0,2.683 2.175,6.476 4.857,6.476c2.683,0 4.857,-2.175 4.857,-4.857c0,-2.682 -2.174,-4.857 -4.857,-4.857z" fill="#967a44"></path></g><g><path d="M41,47.5c-1.203,0 -2.334,-0.47 -3.185,-1.322l-0.096,-0.096l-0.131,-0.034c-5.94,-1.551 -10.088,-6.916 -10.088,-13.048v-16.273c0,-3.403 2.769,-6.172 6.172,-6.172h14.656c3.403,0 6.172,2.769 6.172,6.172v16.273c0,6.132 -4.148,11.497 -10.087,13.048l-0.131,0.034l-0.096,0.096c-0.851,0.852 -1.982,1.322 -3.186,1.322z" fill="#f5ce85"></path><path d="M48.328,11.056c3.128,0 5.672,2.545 5.672,5.672v16.272c0,5.904 -3.994,11.071 -9.713,12.563l-0.263,0.069l-0.192,0.193c-0.757,0.758 -1.762,1.175 -2.832,1.175c-1.07,0 -2.075,-0.417 -2.831,-1.175l-0.192,-0.193l-0.263,-0.069c-5.72,-1.492 -9.714,-6.659 -9.714,-12.563v-16.272c0,-3.128 2.545,-5.672 5.672,-5.672h14.656M48.328,10.056h-14.656c-3.685,0 -6.672,2.987 -6.672,6.672v16.272c0,6.507 4.446,11.961 10.461,13.531c0.905,0.907 2.156,1.469 3.539,1.469c1.383,0 2.634,-0.562 3.539,-1.469c6.015,-1.57 10.461,-7.024 10.461,-13.531v-16.272c0,-3.685 -2.987,-6.672 -6.672,-6.672z" fill="#967a44"></path></g><g><path d="M54.5,31.5v-7.757c0,-6.315 -5.764,-8.008 -5.822,-8.024l-0.284,-0.08l-0.208,0.21c-0.054,0.056 -5.516,5.508 -11.958,5.508c-0.493,0 -1.001,-0.016 -1.512,-0.031c-0.525,-0.016 -1.052,-0.032 -1.568,-0.032c-1.833,0 -5.648,0 -5.648,4.336v5.87h-0.153c-0.555,-1.507 -2.847,-8.057 -2.847,-13.327c0,-9.228 6.785,-15.673 16.5,-15.673c6.668,0 9.535,4.992 9.563,5.043l0.099,0.176l0.193,0.059c2.853,0.861 6.645,2.958 6.645,11.194c0,2.796 -2.338,10.753 -2.871,12.528z" fill="#a6714e"></path><path d="M41,3c6.333,0 9.018,4.594 9.127,4.786l0.197,0.353l0.387,0.117c2.7,0.815 6.289,2.813 6.289,10.715c0,1.809 -1.08,6.135 -2,9.446v-4.674c0,-5.353 -4.047,-7.905 -6.187,-8.506l-0.568,-0.159l-0.414,0.419c-0.053,0.054 -5.377,5.359 -11.603,5.359c-0.489,0 -0.992,-0.016 -1.498,-0.031c-0.531,-0.016 -1.063,-0.032 -1.585,-0.032c-1.839,0 -6.146,0 -6.146,4.835v3.29c-0.859,-2.736 -2,-7.066 -2,-10.746c0.001,-8.933 6.58,-15.172 16.001,-15.172M41,2c-10.107,0 -17,6.914 -17,16.172c0,6.132 3,13.828 3,13.828h1c0,0 0,-4.684 0,-6.371c0,-3.377 2.41,-3.835 5.146,-3.835c1.018,0 2.081,0.063 3.083,0.063c6.737,0 12.314,-5.657 12.314,-5.657c0,0 5.457,1.533 5.457,7.543c0,1.856 0,8.257 0,8.257h1c0,0 3,-9.778 3,-13.029c0,-7.846 -3.419,-10.592 -7,-11.673c0,0 -2.961,-5.298 -10,-5.298z" fill="#7a4f34"></path></g></g></g></svg>